<svg width="118" height="29" viewBox="0 0 118 29" xmlns="http://www.w3.org/2000/svg"><title>Logo</title><g fill="#FFF" fill-rule="evenodd"><path d="M100.466146 21.9686279L106.159472 13.7930532 100.727313 6 105.981994 6 108.823848 10.8133958 111.867805 6 117.005923 6 111.496506 13.6028306 117.159424 21.9686279 112.18521 21.9686279 108.850646 16.6794103 105.813843 21.9686279z"/><path d="M92.521 22.5c-4.99 0-7.884-2.88-7.884-8.22v-.45c0-5.45 3.377-8.33 7.884-8.33 4.615 0 7.817 2.992 7.817 8.387v.45c0 5.339-3.148 8.164-7.817 8.164zm-.052-3.938c2.291 0 3.612-1.677 3.612-4.35v-.356c0-2.75-1.32-4.389-3.585-4.389-2.239 0-3.601 1.543-3.601 4.394v.357c0 2.647 1.283 4.344 3.574 4.344zm-16.03 3.858c-2.66 0-4.17-1.017-5.037-3.09L70.518 22H67.04V.993h3.962v8.046c1.191-2.619 3.001-3.559 5.55-3.559 2.771.02 5.692 3.04 5.692 8.247l.006.353c0 5.376-2.168 8.34-5.81 8.34zm-2.079-3.835c2.42 0 3.638-1.4 3.638-4.459v-.336c0-2.974-1.362-4.2-3.477-4.2-2.25 0-3.326 1.545-3.326 4.312v.285c0 2.638.943 4.398 3.165 4.398zm-25.326 9.424V6.03l3.514.04.958 2.752c.819-2.426 1.902-3.315 4.562-3.315 3.474 0 6.148 2.794 6.148 7.901l-.052.997c0 5.32-2.66 8.042-6.096 8.042-2.576 0-4.2-1.167-5.068-3.043v8.604h-3.966zm7.415-9.399c2.498 0 3.58-1.74 3.58-4.412v-.357c0-2.749-1.082-4.326-3.551-4.326-2.44 0-3.458 1.394-3.458 4.245v.356c0 2.647.93 4.494 3.429 4.494zM38.537 22.5c-4.99 0-7.884-2.88-7.884-8.22v-.45c0-5.45 3.377-8.33 7.884-8.33 4.615 0 7.817 2.992 7.817 8.387v.45c0 5.339-3.149 8.164-7.817 8.164zm-.052-3.938c2.291 0 3.612-1.677 3.612-4.35v-.356c0-2.75-1.32-4.389-3.586-4.389-2.238 0-3.6 1.543-3.6 4.394v.357c0 2.647 1.282 4.344 3.574 4.344zM19.06 22h4.3l-.092-5.584c0-4.426 1.426-5.962 4.898-5.962h1.327L29.45 5.76h-.627c-2.996 0-4.82 1.332-5.464 3.908l-.786-3.675-3.514.019V22zM0 22V2.036h7.818c4.427 0 8.624 2.828 8.624 9.24v1.372c0 6.44-4.483 9.352-8.512 9.352H0zM8.046 6.087c-1.548.037-2.57.056-3.067.056-.113 0-.446-.095-1-.283l.493.9v10.39l-.394.871c.522-.192.848-.289.977-.289.511 0 1.555-.018 3.131-.055 2.048 0 3.613-1.747 3.613-5.171V11.4c0-3.238-1.555-5.314-3.753-5.314z"/></g></svg>
